# xmcd CD database file
#
# Track frame offsets:
#	150
#	13572
#	29692
#	51557
#	65600
#	83425
#	100120
#	121967
#	138215
#	149575
#	168022
#	196112
#	218460
#
# Disc length: 3165 seconds
#
# Revision: 1
# Processed by: cddbd v1.4PL0 Copyright (c) Steve Scherf et al.
# Submitted via: CDex 1.40Release
#
DISCID=ac0c5b0d
DTITLE=Luther "Guitar Junior" Johnson - Talkin' about soul
DYEAR=2002
DGENRE=Blues
TTITLE0=Talkin' about soul
TTITLE1=I've got a woman
TTITLE2=Somebody have mercy
TTITLE3=It's your thing - I'll pay you back
TTITLE4=Lonesome whistle blues
TTITLE5=Crazy over you
TTITLE6=Ramblin' blues
TTITLE7=You've got bad intentions - crying won't help you
TTITLE8=Why are people like that
TTITLE9=Poison Ivy
TTITLE10=Suffer so hard with the blues
TTITLE11=No worry no more
TTITLE12=I'm gone
EXTD=YEAR: 2002 ID3G: 0
EXTT0=
EXTT1=
EXTT2=
EXTT3=
EXTT4=
EXTT5=
EXTT6=
EXTT7=
EXTT8=
EXTT9=
EXTT10=
EXTT11=
EXTT12=
PLAYORDER=
